<svg width="147" height="33" viewBox="0 0 147 33" fill="none" xmlns="http://www.w3.org/2000/svg">
<path d="M3.148 26.288C2.404 26.288 1.816 26.084 1.384 25.676C0.976 25.244 0.772 24.632 0.772 23.84V3.068C0.772 2.276 0.976 1.676 1.384 1.268C1.816 0.835999 2.428 0.619998 3.22 0.619998H15.784C16.408 0.619998 16.876 0.775999 17.188 1.088C17.5 1.4 17.656 1.844 17.656 2.42C17.656 3.02 17.5 3.488 17.188 3.824C16.876 4.136 16.408 4.292 15.784 4.292H5.38V11.456H15.028C15.628 11.456 16.084 11.612 16.396 11.924C16.732 12.236 16.9 12.68 16.9 13.256C16.9 13.856 16.732 14.324 16.396 14.66C16.084 14.972 15.628 15.128 15.028 15.128H5.38V23.84C5.38 25.472 4.636 26.288 3.148 26.288ZM28.0083 26.36C26.0163 26.36 24.5163 25.796 23.5083 24.668C22.5003 23.516 21.9963 21.836 21.9963 19.628V2.6C21.9963 1.856 22.1883 1.292 22.5723 0.907999C22.9563 0.523998 23.5083 0.331998 24.2283 0.331998C24.9483 0.331998 25.5003 0.523998 25.8843 0.907999C26.2923 1.292 26.4963 1.856 26.4963 2.6V19.412C26.4963 20.516 26.7243 21.332 27.1803 21.86C27.6603 22.388 28.3323 22.652 29.1963 22.652C29.3883 22.652 29.5683 22.652 29.7363 22.652C29.9043 22.628 30.0723 22.604 30.2402 22.58C30.5763 22.532 30.8043 22.628 30.9243 22.868C31.0443 23.084 31.1043 23.54 31.1043 24.236C31.1043 24.836 30.9843 25.304 30.7443 25.64C30.5043 25.976 30.1083 26.18 29.5563 26.252C29.3163 26.276 29.0643 26.3 28.8003 26.324C28.5363 26.348 28.2723 26.36 28.0083 26.36ZM41.9926 26.36C40.0006 26.36 38.2846 25.988 36.8446 25.244C35.4046 24.5 34.2886 23.444 33.4966 22.076C32.7286 20.708 32.3446 19.088 32.3446 17.216C32.3446 15.392 32.7166 13.796 33.4606 12.428C34.2286 11.06 35.2726 9.992 36.5926 9.224C37.9366 8.432 39.4606 8.036 41.1646 8.036C42.4126 8.036 43.5286 8.24 44.5126 8.648C45.5206 9.056 46.3726 9.644 47.0686 10.412C47.7886 11.18 48.3286 12.116 48.6886 13.22C49.0726 14.3 49.2646 15.524 49.2646 16.892C49.2646 17.324 49.1086 17.66 48.7966 17.9C48.5086 18.116 48.0886 18.224 47.5366 18.224H35.9806V15.632H46.0966L45.5206 16.172C45.5206 15.068 45.3526 14.144 45.0166 13.4C44.7046 12.656 44.2366 12.092 43.6126 11.708C43.0126 11.3 42.2566 11.096 41.3446 11.096C40.3366 11.096 39.4726 11.336 38.7526 11.816C38.0566 12.272 37.5166 12.932 37.1326 13.796C36.7726 14.636 36.5926 15.644 36.5926 16.82V17.072C36.5926 19.04 37.0486 20.516 37.9606 21.5C38.8966 22.46 40.2646 22.94 42.0646 22.94C42.6886 22.94 43.3846 22.868 44.1526 22.724C44.9446 22.556 45.6886 22.28 46.3846 21.896C46.8886 21.608 47.3326 21.488 47.7166 21.536C48.1006 21.56 48.4006 21.692 48.6166 21.932C48.8566 22.172 49.0006 22.472 49.0486 22.832C49.0966 23.168 49.0246 23.516 48.8326 23.876C48.6646 24.236 48.3646 24.548 47.9326 24.812C47.0926 25.34 46.1206 25.736 45.0166 26C43.9366 26.24 42.9286 26.36 41.9926 26.36ZM53.9468 26.18C53.4188 26.18 52.9748 26.036 52.6148 25.748C52.2788 25.436 52.0988 25.04 52.0748 24.56C52.0748 24.08 52.2788 23.576 52.6868 23.048L58.5188 15.848V17.972L53.0468 11.24C52.6148 10.712 52.4108 10.208 52.4348 9.728C52.4588 9.248 52.6388 8.864 52.9748 8.576C53.3348 8.264 53.7788 8.108 54.3068 8.108C54.8588 8.108 55.3148 8.204 55.6748 8.396C56.0588 8.588 56.4068 8.888 56.7188 9.296L61.0388 14.84H59.4548L63.8108 9.296C64.1468 8.888 64.4948 8.588 64.8548 8.396C65.2148 8.204 65.6588 8.108 66.1868 8.108C66.7388 8.108 67.1828 8.264 67.5188 8.576C67.8548 8.888 68.0228 9.284 68.0228 9.764C68.0468 10.244 67.8428 10.748 67.4108 11.276L61.9748 17.936V15.92L67.8068 23.048C68.2388 23.552 68.4428 24.044 68.4188 24.524C68.3948 25.004 68.2028 25.4 67.8428 25.712C67.5068 26.024 67.0628 26.18 66.5108 26.18C65.9828 26.18 65.5388 26.084 65.1788 25.892C64.8188 25.7 64.4708 25.4 64.1348 24.992L59.4548 19.088H60.9668L56.3228 24.992C56.0108 25.376 55.6748 25.676 55.3148 25.892C54.9548 26.084 54.4988 26.18 53.9468 26.18ZM75.2552 26C74.4632 26 73.8512 25.796 73.4192 25.388C73.0112 24.956 72.8072 24.344 72.8072 23.552V3.068C72.8072 2.276 73.0112 1.676 73.4192 1.268C73.8512 0.835999 74.4632 0.619998 75.2552 0.619998H83.8952C85.6712 0.619998 87.1832 0.883999 88.4312 1.412C89.6792 1.94 90.6272 2.696 91.2752 3.68C91.9472 4.664 92.2832 5.84 92.2832 7.208C92.2832 8.744 91.8392 10.04 90.9512 11.096C90.0632 12.152 88.8512 12.86 87.3152 13.22V12.68C89.0912 12.944 90.4712 13.616 91.4552 14.696C92.4392 15.776 92.9312 17.18 92.9312 18.908C92.9312 21.164 92.1632 22.916 90.6272 24.164C89.1152 25.388 87.0032 26 84.2912 26H75.2552ZM77.2352 22.508H83.7152C85.3472 22.508 86.5472 22.196 87.3152 21.572C88.0832 20.924 88.4672 19.964 88.4672 18.692C88.4672 17.396 88.0832 16.436 87.3152 15.812C86.5472 15.188 85.3472 14.876 83.7152 14.876H77.2352V22.508ZM77.2352 11.384H83.1032C84.6872 11.384 85.8632 11.084 86.6312 10.484C87.4232 9.86 87.8192 8.948 87.8192 7.748C87.8192 6.548 87.4232 5.648 86.6312 5.048C85.8632 4.424 84.6872 4.112 83.1032 4.112H77.2352V11.384ZM103.172 26.36C101.18 26.36 99.6803 25.796 98.6723 24.668C97.6643 23.516 97.1603 21.836 97.1603 19.628V2.6C97.1603 1.856 97.3523 1.292 97.7363 0.907999C98.1203 0.523998 98.6723 0.331998 99.3923 0.331998C100.112 0.331998 100.664 0.523998 101.048 0.907999C101.456 1.292 101.66 1.856 101.66 2.6V19.412C101.66 20.516 101.888 21.332 102.344 21.86C102.824 22.388 103.496 22.652 104.36 22.652C104.552 22.652 104.732 22.652 104.9 22.652C105.068 22.628 105.236 22.604 105.404 22.58C105.74 22.532 105.968 22.628 106.088 22.868C106.208 23.084 106.268 23.54 106.268 24.236C106.268 24.836 106.148 25.304 105.908 25.64C105.668 25.976 105.272 26.18 104.72 26.252C104.48 26.276 104.228 26.3 103.964 26.324C103.7 26.348 103.436 26.36 103.172 26.36ZM116.509 26.36C114.685 26.36 113.101 25.988 111.757 25.244C110.413 24.5 109.369 23.444 108.625 22.076C107.881 20.684 107.509 19.052 107.509 17.18C107.509 15.764 107.713 14.504 108.121 13.4C108.553 12.272 109.165 11.312 109.957 10.52C110.749 9.704 111.697 9.092 112.801 8.684C113.905 8.252 115.141 8.036 116.509 8.036C118.333 8.036 119.917 8.408 121.261 9.152C122.605 9.896 123.649 10.952 124.393 12.32C125.137 13.688 125.509 15.308 125.509 17.18C125.509 18.596 125.293 19.868 124.861 20.996C124.453 22.124 123.853 23.096 123.061 23.912C122.269 24.704 121.321 25.316 120.217 25.748C119.113 26.156 117.877 26.36 116.509 26.36ZM116.509 22.94C117.397 22.94 118.177 22.724 118.849 22.292C119.521 21.86 120.037 21.224 120.397 20.384C120.781 19.52 120.973 18.452 120.973 17.18C120.973 15.26 120.565 13.832 119.749 12.896C118.933 11.936 117.853 11.456 116.509 11.456C115.621 11.456 114.841 11.672 114.169 12.104C113.497 12.512 112.969 13.148 112.585 14.012C112.225 14.852 112.045 15.908 112.045 17.18C112.045 19.076 112.453 20.516 113.269 21.5C114.085 22.46 115.165 22.94 116.509 22.94ZM137.431 32.84C136.135 32.84 134.875 32.72 133.651 32.48C132.451 32.24 131.359 31.868 130.375 31.364C129.919 31.124 129.607 30.836 129.439 30.5C129.295 30.164 129.247 29.816 129.295 29.456C129.367 29.12 129.511 28.82 129.727 28.556C129.967 28.292 130.255 28.112 130.591 28.016C130.927 27.92 131.275 27.968 131.635 28.16C132.691 28.688 133.687 29.024 134.623 29.168C135.583 29.336 136.399 29.42 137.071 29.42C138.679 29.42 139.879 29.024 140.671 28.232C141.487 27.464 141.895 26.312 141.895 24.776V21.536H142.219C141.859 22.76 141.103 23.744 139.951 24.488C138.823 25.208 137.539 25.568 136.099 25.568C134.515 25.568 133.135 25.208 131.959 24.488C130.783 23.744 129.871 22.712 129.223 21.392C128.575 20.072 128.251 18.536 128.251 16.784C128.251 15.464 128.431 14.276 128.791 13.22C129.175 12.14 129.703 11.216 130.375 10.448C131.071 9.68 131.899 9.092 132.859 8.684C133.843 8.252 134.923 8.036 136.099 8.036C137.587 8.036 138.883 8.408 139.987 9.152C141.115 9.872 141.847 10.832 142.183 12.032L141.823 12.932V10.376C141.823 9.632 142.015 9.068 142.399 8.684C142.807 8.3 143.359 8.108 144.055 8.108C144.775 8.108 145.327 8.3 145.711 8.684C146.095 9.068 146.287 9.632 146.287 10.376V24.236C146.287 27.092 145.531 29.24 144.019 30.68C142.507 32.12 140.311 32.84 137.431 32.84ZM137.323 22.148C138.259 22.148 139.063 21.932 139.735 21.5C140.407 21.068 140.923 20.456 141.283 19.664C141.667 18.848 141.859 17.888 141.859 16.784C141.859 15.128 141.451 13.832 140.635 12.896C139.819 11.936 138.715 11.456 137.323 11.456C136.387 11.456 135.583 11.672 134.911 12.104C134.239 12.536 133.711 13.148 133.327 13.94C132.967 14.732 132.787 15.68 132.787 16.784C132.787 18.44 133.195 19.748 134.011 20.708C134.827 21.668 135.931 22.148 137.323 22.148Z" fill="white"/>
</svg>
